<mxfile host="65bd71144e">
    <diagram id="UQDhteVbxVr-5qUD_nB6" name="Page-1">
        <mxGraphModel dx="3109" dy="1849" grid="1" gridSize="10" guides="1" tooltips="1" connect="1" arrows="1" fold="1" page="1" pageScale="1" pageWidth="2000" pageHeight="1200" math="0" shadow="0">
            <root>
                <mxCell id="0"/>
                <mxCell id="1" parent="0"/>
                <mxCell id="15" style="edgeStyle=none;html=1;exitX=0.5;exitY=0;exitDx=0;exitDy=0;entryX=0.75;entryY=1;entryDx=0;entryDy=0;fontSize=41;strokeWidth=4;" edge="1" parent="1" source="2" target="4">
                    <mxGeometry relative="1" as="geometry"/>
                </mxCell>
                <mxCell id="31" style="edgeStyle=none;html=1;fontSize=41;entryX=0.75;entryY=1;entryDx=0;entryDy=0;strokeWidth=4;" edge="1" parent="1" source="39" target="2">
                    <mxGeometry relative="1" as="geometry">
                        <mxPoint x="279" y="413.4" as="sourcePoint"/>
                    </mxGeometry>
                </mxCell>
                <mxCell id="34" style="edgeStyle=none;html=1;fontSize=41;entryX=0.25;entryY=1;entryDx=0;entryDy=0;strokeWidth=4;" edge="1" parent="1" source="40" target="2">
                    <mxGeometry relative="1" as="geometry">
                        <mxPoint x="329" y="353.4" as="sourcePoint"/>
                    </mxGeometry>
                </mxCell>
                <mxCell id="56" style="edgeStyle=none;html=1;fontSize=22;entryX=1;entryY=0.5;entryDx=0;entryDy=0;strokeWidth=4;" edge="1" parent="1" source="57" target="2">
                    <mxGeometry relative="1" as="geometry">
                        <mxPoint x="319" y="483" as="sourcePoint"/>
                        <Array as="points">
                            <mxPoint x="439" y="483"/>
                        </Array>
                    </mxGeometry>
                </mxCell>
                <mxCell id="2" value="N_ENA" style="shape=trapezoid;perimeter=trapezoidPerimeter;whiteSpace=wrap;html=1;fixedSize=1;direction=south;strokeWidth=4;" vertex="1" parent="1">
                    <mxGeometry x="409" y="323" width="60" height="120" as="geometry"/>
                </mxCell>
                <mxCell id="16" style="edgeStyle=none;html=1;exitX=0.5;exitY=0;exitDx=0;exitDy=0;entryX=0.25;entryY=1;entryDx=0;entryDy=0;fontSize=41;strokeWidth=4;" edge="1" parent="1" source="3" target="5">
                    <mxGeometry relative="1" as="geometry"/>
                </mxCell>
                <mxCell id="32" style="edgeStyle=none;html=1;fontSize=41;entryX=0.75;entryY=1;entryDx=0;entryDy=0;strokeWidth=4;" edge="1" parent="1" source="42" target="3">
                    <mxGeometry relative="1" as="geometry">
                        <mxPoint x="279" y="673.4000000000001" as="sourcePoint"/>
                    </mxGeometry>
                </mxCell>
                <mxCell id="35" style="edgeStyle=none;html=1;fontSize=41;entryX=0.25;entryY=1;entryDx=0;entryDy=0;strokeWidth=4;" edge="1" parent="1" source="41" target="3">
                    <mxGeometry relative="1" as="geometry">
                        <mxPoint x="329" y="613.4000000000001" as="sourcePoint"/>
                    </mxGeometry>
                </mxCell>
                <mxCell id="58" style="edgeStyle=none;html=1;fontSize=22;entryX=1;entryY=0.5;entryDx=0;entryDy=0;strokeWidth=4;" edge="1" parent="1" source="59" target="3">
                    <mxGeometry relative="1" as="geometry">
                        <mxPoint x="249" y="753" as="sourcePoint"/>
                        <Array as="points">
                            <mxPoint x="439" y="753"/>
                        </Array>
                    </mxGeometry>
                </mxCell>
                <mxCell id="3" value="DATA_ENA" style="shape=trapezoid;perimeter=trapezoidPerimeter;whiteSpace=wrap;html=1;fixedSize=1;direction=south;strokeWidth=4;" vertex="1" parent="1">
                    <mxGeometry x="409" y="583" width="60" height="120" as="geometry"/>
                </mxCell>
                <mxCell id="24" style="edgeStyle=none;html=1;exitX=0.5;exitY=0;exitDx=0;exitDy=0;entryX=0;entryY=0.5;entryDx=0;entryDy=0;fontSize=41;strokeWidth=4;" edge="1" parent="1" source="4" target="11">
                    <mxGeometry relative="1" as="geometry"/>
                </mxCell>
                <mxCell id="4" value="N_SEL" style="shape=trapezoid;perimeter=trapezoidPerimeter;whiteSpace=wrap;html=1;fixedSize=1;direction=south;strokeWidth=4;" vertex="1" parent="1">
                    <mxGeometry x="626" y="293" width="60" height="120" as="geometry"/>
                </mxCell>
                <mxCell id="17" style="edgeStyle=none;html=1;exitX=0.5;exitY=0;exitDx=0;exitDy=0;entryX=0;entryY=0.5;entryDx=0;entryDy=0;fontSize=41;strokeWidth=4;" edge="1" parent="1" source="5" target="6">
                    <mxGeometry relative="1" as="geometry"/>
                </mxCell>
                <mxCell id="33" style="edgeStyle=none;html=1;fontSize=41;entryX=0.75;entryY=1;entryDx=0;entryDy=0;strokeWidth=4;" edge="1" parent="1" source="43" target="5">
                    <mxGeometry relative="1" as="geometry">
                        <mxPoint x="546" y="763" as="sourcePoint"/>
                        <Array as="points">
                            <mxPoint x="586" y="763"/>
                            <mxPoint x="586" y="703"/>
                        </Array>
                    </mxGeometry>
                </mxCell>
                <mxCell id="5" value="DATA_SEL" style="shape=trapezoid;perimeter=trapezoidPerimeter;whiteSpace=wrap;html=1;fixedSize=1;direction=south;strokeWidth=4;" vertex="1" parent="1">
                    <mxGeometry x="636" y="613" width="60" height="120" as="geometry"/>
                </mxCell>
                <mxCell id="23" style="edgeStyle=none;html=1;exitX=1;exitY=0.5;exitDx=0;exitDy=0;entryX=1;entryY=0.5;entryDx=0;entryDy=0;fontSize=41;strokeWidth=4;" edge="1" parent="1" source="6" target="12">
                    <mxGeometry relative="1" as="geometry">
                        <Array as="points">
                            <mxPoint x="1139" y="673"/>
                            <mxPoint x="1139" y="793"/>
                        </Array>
                    </mxGeometry>
                </mxCell>
                <mxCell id="6" value="&lt;font style=&quot;font-size: 52px;&quot;&gt;+&lt;/font&gt;" style="ellipse;whiteSpace=wrap;html=1;aspect=fixed;strokeWidth=4;" vertex="1" parent="1">
                    <mxGeometry x="859" y="633" width="80" height="80" as="geometry"/>
                </mxCell>
                <mxCell id="30" style="edgeStyle=none;html=1;exitX=0;exitY=0.5;exitDx=0;exitDy=0;entryX=0.25;entryY=1;entryDx=0;entryDy=0;fontSize=41;strokeWidth=4;" edge="1" parent="1" source="8" target="4">
                    <mxGeometry relative="1" as="geometry">
                        <Array as="points">
                            <mxPoint x="576" y="173"/>
                            <mxPoint x="576" y="323"/>
                        </Array>
                    </mxGeometry>
                </mxCell>
                <mxCell id="68" style="edgeStyle=none;html=1;strokeWidth=4;fontSize=27;entryX=0.5;entryY=0;entryDx=0;entryDy=0;" edge="1" parent="1" source="69" target="8">
                    <mxGeometry relative="1" as="geometry">
                        <mxPoint x="899" y="73" as="sourcePoint"/>
                        <Array as="points">
                            <mxPoint x="899" y="73"/>
                        </Array>
                    </mxGeometry>
                </mxCell>
                <mxCell id="8" value="&lt;span style=&quot;font-size: 52px;&quot;&gt;-&lt;/span&gt;" style="ellipse;whiteSpace=wrap;html=1;aspect=fixed;strokeWidth=4;" vertex="1" parent="1">
                    <mxGeometry x="859" y="133" width="80" height="80" as="geometry"/>
                </mxCell>
                <mxCell id="26" style="edgeStyle=none;html=1;exitX=0.5;exitY=1;exitDx=0;exitDy=0;entryX=1;entryY=0.5;entryDx=0;entryDy=0;fontSize=41;strokeWidth=4;" edge="1" parent="1" source="9" target="4">
                    <mxGeometry relative="1" as="geometry">
                        <Array as="points">
                            <mxPoint x="1069" y="533"/>
                            <mxPoint x="656" y="533"/>
                        </Array>
                    </mxGeometry>
                </mxCell>
                <mxCell id="27" style="edgeStyle=none;html=1;exitX=0.5;exitY=1;exitDx=0;exitDy=0;entryX=0;entryY=0.5;entryDx=0;entryDy=0;fontSize=41;strokeWidth=4;" edge="1" parent="1" source="9" target="5">
                    <mxGeometry relative="1" as="geometry">
                        <Array as="points">
                            <mxPoint x="1069" y="533"/>
                            <mxPoint x="666" y="533"/>
                        </Array>
                    </mxGeometry>
                </mxCell>
                <mxCell id="28" style="edgeStyle=none;html=1;exitX=0.5;exitY=1;exitDx=0;exitDy=0;entryX=0;entryY=0.5;entryDx=0;entryDy=0;fontSize=41;strokeWidth=4;" edge="1" parent="1" source="9" target="10">
                    <mxGeometry relative="1" as="geometry">
                        <Array as="points">
                            <mxPoint x="1069" y="533"/>
                            <mxPoint x="1239" y="533"/>
                        </Array>
                    </mxGeometry>
                </mxCell>
                <mxCell id="54" style="edgeStyle=none;html=1;exitX=0.5;exitY=1;exitDx=0;exitDy=0;fontSize=22;strokeWidth=4;" edge="1" parent="1" source="9" target="55">
                    <mxGeometry relative="1" as="geometry">
                        <mxPoint x="1679" y="533" as="targetPoint"/>
                        <Array as="points">
                            <mxPoint x="1069" y="533"/>
                        </Array>
                    </mxGeometry>
                </mxCell>
                <mxCell id="9" value="&lt;font style=&quot;font-size: 41px;&quot;&gt;=0&lt;/font&gt;" style="ellipse;whiteSpace=wrap;html=1;aspect=fixed;strokeWidth=4;" vertex="1" parent="1">
                    <mxGeometry x="1029" y="413" width="80" height="80" as="geometry"/>
                </mxCell>
                <mxCell id="18" style="edgeStyle=none;html=1;exitX=0.5;exitY=0;exitDx=0;exitDy=0;entryX=0.25;entryY=1;entryDx=0;entryDy=0;fontSize=41;strokeWidth=4;" edge="1" parent="1" source="10" target="14">
                    <mxGeometry relative="1" as="geometry"/>
                </mxCell>
                <mxCell id="19" style="edgeStyle=none;html=1;exitX=0.5;exitY=0;exitDx=0;exitDy=0;entryX=0.5;entryY=0;entryDx=0;entryDy=0;fontSize=41;strokeWidth=4;" edge="1" parent="1" source="10" target="13">
                    <mxGeometry relative="1" as="geometry">
                        <Array as="points">
                            <mxPoint x="1359" y="937"/>
                        </Array>
                    </mxGeometry>
                </mxCell>
                <mxCell id="10" value="SUM_SEL" style="shape=trapezoid;perimeter=trapezoidPerimeter;whiteSpace=wrap;html=1;fixedSize=1;direction=south;strokeWidth=4;" vertex="1" parent="1">
                    <mxGeometry x="1209" y="877" width="60" height="120" as="geometry"/>
                </mxCell>
                <mxCell id="25" style="edgeStyle=none;html=1;exitX=1;exitY=0.5;exitDx=0;exitDy=0;entryX=0.5;entryY=0;entryDx=0;entryDy=0;fontSize=41;strokeWidth=4;" edge="1" parent="1" source="11" target="9">
                    <mxGeometry relative="1" as="geometry">
                        <Array as="points">
                            <mxPoint x="1069" y="353"/>
                        </Array>
                    </mxGeometry>
                </mxCell>
                <mxCell id="29" style="edgeStyle=none;html=1;exitX=1;exitY=0.5;exitDx=0;exitDy=0;entryX=1.03;entryY=0.578;entryDx=0;entryDy=0;entryPerimeter=0;fontSize=41;strokeWidth=4;" edge="1" parent="1" source="11" target="8">
                    <mxGeometry relative="1" as="geometry">
                        <Array as="points">
                            <mxPoint x="1030" y="353"/>
                            <mxPoint x="1030" y="179"/>
                        </Array>
                    </mxGeometry>
                </mxCell>
                <mxCell id="48" style="edgeStyle=none;html=1;fontSize=22;entryX=0.5;entryY=1;entryDx=0;entryDy=0;strokeWidth=4;" edge="1" parent="1" source="49" target="11">
                    <mxGeometry relative="1" as="geometry">
                        <mxPoint x="959" y="423" as="sourcePoint"/>
                        <Array as="points">
                            <mxPoint x="899" y="423"/>
                        </Array>
                    </mxGeometry>
                </mxCell>
                <mxCell id="60" style="edgeStyle=none;html=1;fontSize=17;entryX=0.5;entryY=0;entryDx=0;entryDy=0;strokeWidth=4;" edge="1" parent="1" source="61" target="11">
                    <mxGeometry relative="1" as="geometry">
                        <mxPoint x="849" y="263" as="sourcePoint"/>
                        <Array as="points">
                            <mxPoint x="899" y="263"/>
                        </Array>
                    </mxGeometry>
                </mxCell>
                <mxCell id="11" value="&lt;font style=&quot;font-size: 17px;&quot;&gt;COUNT_REG&lt;/font&gt;" style="rounded=0;whiteSpace=wrap;html=1;fontSize=41;align=center;strokeWidth=4;" vertex="1" parent="1">
                    <mxGeometry x="839" y="323" width="120" height="60" as="geometry"/>
                </mxCell>
                <mxCell id="21" style="edgeStyle=none;html=1;exitX=0;exitY=0.5;exitDx=0;exitDy=0;entryX=0.25;entryY=1;entryDx=0;entryDy=0;fontSize=41;strokeWidth=4;" edge="1" parent="1" source="12" target="10">
                    <mxGeometry relative="1" as="geometry">
                        <Array as="points">
                            <mxPoint x="899" y="793"/>
                            <mxPoint x="899" y="873"/>
                            <mxPoint x="899" y="903"/>
                        </Array>
                    </mxGeometry>
                </mxCell>
                <mxCell id="22" style="edgeStyle=none;html=1;exitX=0;exitY=0.5;exitDx=0;exitDy=0;entryX=0.5;entryY=1;entryDx=0;entryDy=0;fontSize=41;strokeWidth=4;" edge="1" parent="1" source="12" target="6">
                    <mxGeometry relative="1" as="geometry">
                        <Array as="points">
                            <mxPoint x="899" y="793"/>
                        </Array>
                    </mxGeometry>
                </mxCell>
                <mxCell id="46" style="edgeStyle=none;html=1;fontSize=22;entryX=0.5;entryY=1;entryDx=0;entryDy=0;strokeWidth=4;" edge="1" parent="1" source="47" target="12">
                    <mxGeometry relative="1" as="geometry">
                        <mxPoint x="1029" y="857.0000000000002" as="targetPoint"/>
                        <mxPoint x="1069" y="877" as="sourcePoint"/>
                        <Array as="points">
                            <mxPoint x="1029" y="863"/>
                        </Array>
                    </mxGeometry>
                </mxCell>
                <mxCell id="62" style="edgeStyle=none;html=1;fontSize=17;entryX=0.5;entryY=0;entryDx=0;entryDy=0;strokeWidth=4;" edge="1" parent="1" source="63" target="12">
                    <mxGeometry relative="1" as="geometry">
                        <mxPoint x="989" y="723" as="sourcePoint"/>
                        <Array as="points">
                            <mxPoint x="1029" y="723"/>
                        </Array>
                    </mxGeometry>
                </mxCell>
                <mxCell id="12" value="&lt;font style=&quot;font-size: 19px;&quot;&gt;SUM REG&lt;/font&gt;" style="rounded=0;whiteSpace=wrap;html=1;fontSize=41;strokeWidth=4;" vertex="1" parent="1">
                    <mxGeometry x="969" y="763" width="120" height="60" as="geometry"/>
                </mxCell>
                <mxCell id="20" style="edgeStyle=none;html=1;exitX=0;exitY=0.5;exitDx=0;exitDy=0;entryX=0.75;entryY=1;entryDx=0;entryDy=0;fontSize=41;strokeWidth=4;" edge="1" parent="1" source="13" target="10">
                    <mxGeometry relative="1" as="geometry">
                        <Array as="points">
                            <mxPoint x="1109" y="1037"/>
                            <mxPoint x="1109" y="1007"/>
                            <mxPoint x="1109" y="967"/>
                        </Array>
                    </mxGeometry>
                </mxCell>
                <mxCell id="50" style="edgeStyle=none;html=1;fontSize=22;entryX=0.5;entryY=1;entryDx=0;entryDy=0;strokeWidth=4;" edge="1" parent="1" source="51" target="13">
                    <mxGeometry relative="1" as="geometry">
                        <mxPoint x="1309" y="1077" as="sourcePoint"/>
                        <Array as="points">
                            <mxPoint x="1359" y="1097"/>
                            <mxPoint x="1359" y="1077"/>
                        </Array>
                    </mxGeometry>
                </mxCell>
                <mxCell id="64" style="edgeStyle=none;html=1;fontSize=17;entryX=0.75;entryY=1;entryDx=0;entryDy=0;strokeWidth=4;" edge="1" parent="1" source="65" target="13">
                    <mxGeometry relative="1" as="geometry">
                        <mxPoint x="1439" y="1097" as="sourcePoint"/>
                        <Array as="points">
                            <mxPoint x="1389" y="1097"/>
                        </Array>
                    </mxGeometry>
                </mxCell>
                <mxCell id="13" value="&lt;font style=&quot;font-size: 22px;&quot;&gt;OUT REG&lt;/font&gt;" style="rounded=0;whiteSpace=wrap;html=1;fontSize=41;strokeWidth=4;" vertex="1" parent="1">
                    <mxGeometry x="1299" y="1007" width="120" height="60" as="geometry"/>
                </mxCell>
                <mxCell id="36" style="edgeStyle=none;html=1;fontSize=41;entryX=0.75;entryY=1;entryDx=0;entryDy=0;strokeWidth=4;" edge="1" parent="1" source="44" target="14">
                    <mxGeometry relative="1" as="geometry">
                        <mxPoint x="1519" y="997" as="sourcePoint"/>
                    </mxGeometry>
                </mxCell>
                <mxCell id="37" style="edgeStyle=none;html=1;exitX=0.5;exitY=0;exitDx=0;exitDy=0;fontSize=41;strokeWidth=4;" edge="1" parent="1" source="14" target="53">
                    <mxGeometry relative="1" as="geometry">
                        <mxPoint x="1699" y="967.4000000000001" as="targetPoint"/>
                    </mxGeometry>
                </mxCell>
                <mxCell id="38" style="edgeStyle=none;html=1;fontSize=41;entryX=1;entryY=0.5;entryDx=0;entryDy=0;strokeWidth=4;" edge="1" parent="1" source="45" target="14">
                    <mxGeometry relative="1" as="geometry">
                        <mxPoint x="1509" y="1077" as="sourcePoint"/>
                        <Array as="points">
                            <mxPoint x="1579" y="1077"/>
                        </Array>
                    </mxGeometry>
                </mxCell>
                <mxCell id="14" value="OUT_ENA" style="shape=trapezoid;perimeter=trapezoidPerimeter;whiteSpace=wrap;html=1;fixedSize=1;direction=south;strokeWidth=4;" vertex="1" parent="1">
                    <mxGeometry x="1549" y="907" width="60" height="120" as="geometry"/>
                </mxCell>
                <mxCell id="39" value="N" style="text;html=1;align=center;verticalAlign=middle;resizable=0;points=[];autosize=1;strokeColor=none;fillColor=none;fontSize=26;strokeWidth=4;" vertex="1" parent="1">
                    <mxGeometry x="225" y="393" width="40" height="40" as="geometry"/>
                </mxCell>
                <mxCell id="40" value="0" style="text;html=1;align=center;verticalAlign=middle;resizable=0;points=[];autosize=1;strokeColor=none;fillColor=none;fontSize=26;strokeWidth=4;" vertex="1" parent="1">
                    <mxGeometry x="329" y="333" width="40" height="40" as="geometry"/>
                </mxCell>
                <mxCell id="41" value="0" style="text;html=1;align=center;verticalAlign=middle;resizable=0;points=[];autosize=1;strokeColor=none;fillColor=none;fontSize=26;strokeWidth=4;" vertex="1" parent="1">
                    <mxGeometry x="299" y="593" width="40" height="40" as="geometry"/>
                </mxCell>
                <mxCell id="42" value="DATA" style="text;html=1;align=center;verticalAlign=middle;resizable=0;points=[];autosize=1;strokeColor=none;fillColor=none;fontSize=26;strokeWidth=4;" vertex="1" parent="1">
                    <mxGeometry x="200" y="653" width="90" height="40" as="geometry"/>
                </mxCell>
                <mxCell id="43" value="0" style="text;html=1;align=center;verticalAlign=middle;resizable=0;points=[];autosize=1;strokeColor=none;fillColor=none;fontSize=26;strokeWidth=4;" vertex="1" parent="1">
                    <mxGeometry x="526" y="743" width="40" height="40" as="geometry"/>
                </mxCell>
                <mxCell id="44" value="0" style="text;html=1;align=center;verticalAlign=middle;resizable=0;points=[];autosize=1;strokeColor=none;fillColor=none;fontSize=22;strokeWidth=4;" vertex="1" parent="1">
                    <mxGeometry x="1469" y="977" width="40" height="40" as="geometry"/>
                </mxCell>
                <mxCell id="45" value="EN" style="text;html=1;align=center;verticalAlign=middle;resizable=0;points=[];autosize=1;strokeColor=none;fillColor=none;fontSize=22;strokeWidth=4;" vertex="1" parent="1">
                    <mxGeometry x="1489" y="1057" width="50" height="40" as="geometry"/>
                </mxCell>
                <mxCell id="47" value="CLK" style="text;html=1;align=center;verticalAlign=middle;resizable=0;points=[];autosize=1;strokeColor=none;fillColor=none;fontSize=22;strokeWidth=4;" vertex="1" parent="1">
                    <mxGeometry x="1074" y="843" width="70" height="40" as="geometry"/>
                </mxCell>
                <mxCell id="49" value="CLK" style="text;html=1;align=center;verticalAlign=middle;resizable=0;points=[];autosize=1;strokeColor=none;fillColor=none;fontSize=22;strokeWidth=4;" vertex="1" parent="1">
                    <mxGeometry x="929" y="403" width="70" height="40" as="geometry"/>
                </mxCell>
                <mxCell id="51" value="CLK" style="text;html=1;align=center;verticalAlign=middle;resizable=0;points=[];autosize=1;strokeColor=none;fillColor=none;fontSize=22;strokeWidth=4;" vertex="1" parent="1">
                    <mxGeometry x="1249" y="1077" width="70" height="40" as="geometry"/>
                </mxCell>
                <mxCell id="53" value="OUTPUT" style="text;html=1;align=center;verticalAlign=middle;resizable=0;points=[];autosize=1;strokeColor=none;fillColor=none;fontSize=22;strokeWidth=4;" vertex="1" parent="1">
                    <mxGeometry x="1749" y="947" width="110" height="40" as="geometry"/>
                </mxCell>
                <mxCell id="55" value="DONE" style="text;html=1;align=center;verticalAlign=middle;resizable=0;points=[];autosize=1;strokeColor=none;fillColor=none;fontSize=22;strokeWidth=4;" vertex="1" parent="1">
                    <mxGeometry x="1759" y="513" width="90" height="40" as="geometry"/>
                </mxCell>
                <mxCell id="57" value="ENA" style="text;html=1;align=center;verticalAlign=middle;resizable=0;points=[];autosize=1;strokeColor=none;fillColor=none;fontSize=27;strokeWidth=4;" vertex="1" parent="1">
                    <mxGeometry x="205" y="458" width="80" height="50" as="geometry"/>
                </mxCell>
                <mxCell id="59" value="ENA" style="text;html=1;align=center;verticalAlign=middle;resizable=0;points=[];autosize=1;strokeColor=none;fillColor=none;fontSize=27;strokeWidth=4;" vertex="1" parent="1">
                    <mxGeometry x="220" y="728" width="80" height="50" as="geometry"/>
                </mxCell>
                <mxCell id="61" value="RST" style="text;html=1;align=center;verticalAlign=middle;resizable=0;points=[];autosize=1;strokeColor=none;fillColor=none;fontSize=23;strokeWidth=4;" vertex="1" parent="1">
                    <mxGeometry x="794" y="243" width="70" height="40" as="geometry"/>
                </mxCell>
                <mxCell id="63" value="RST" style="text;html=1;align=center;verticalAlign=middle;resizable=0;points=[];autosize=1;strokeColor=none;fillColor=none;fontSize=24;strokeWidth=4;" vertex="1" parent="1">
                    <mxGeometry x="937" y="703" width="70" height="40" as="geometry"/>
                </mxCell>
                <mxCell id="65" value="RST" style="text;html=1;align=center;verticalAlign=middle;resizable=0;points=[];autosize=1;strokeColor=none;fillColor=none;fontSize=17;strokeWidth=4;" vertex="1" parent="1">
                    <mxGeometry x="1419" y="1082" width="60" height="30" as="geometry"/>
                </mxCell>
                <mxCell id="67" style="edgeStyle=none;html=1;fontSize=17;strokeWidth=4;" edge="1" parent="1" source="66">
                    <mxGeometry relative="1" as="geometry">
                        <mxPoint x="439" y="818" as="targetPoint"/>
                    </mxGeometry>
                </mxCell>
                <mxCell id="66" value="&lt;font style=&quot;font-size: 27px;&quot;&gt;RST&lt;/font&gt;" style="text;html=1;align=center;verticalAlign=middle;resizable=0;points=[];autosize=1;strokeColor=none;fillColor=none;fontSize=17;strokeWidth=4;" vertex="1" parent="1">
                    <mxGeometry x="215" y="793" width="80" height="50" as="geometry"/>
                </mxCell>
                <mxCell id="69" value="1" style="text;html=1;align=center;verticalAlign=middle;resizable=0;points=[];autosize=1;strokeColor=none;fillColor=none;fontSize=27;" vertex="1" parent="1">
                    <mxGeometry x="1002" y="50" width="40" height="50" as="geometry"/>
                </mxCell>
                <mxCell id="70" value="n_wire" style="text;html=1;align=center;verticalAlign=middle;resizable=0;points=[];autosize=1;strokeColor=none;fillColor=none;fontSize=27;" vertex="1" parent="1">
                    <mxGeometry x="716" y="303" width="100" height="50" as="geometry"/>
                </mxCell>
                <mxCell id="72" value="data_wire" style="text;html=1;align=center;verticalAlign=middle;resizable=0;points=[];autosize=1;strokeColor=none;fillColor=none;fontSize=27;" vertex="1" parent="1">
                    <mxGeometry x="706" y="618" width="140" height="50" as="geometry"/>
                </mxCell>
                <mxCell id="73" value="add_wire" style="text;html=1;align=center;verticalAlign=middle;resizable=0;points=[];autosize=1;strokeColor=none;fillColor=none;fontSize=27;" vertex="1" parent="1">
                    <mxGeometry x="979" y="618" width="130" height="50" as="geometry"/>
                </mxCell>
                <mxCell id="74" value="out_wire" style="text;html=1;align=center;verticalAlign=middle;resizable=0;points=[];autosize=1;strokeColor=none;fillColor=none;fontSize=27;strokeWidth=4;" vertex="1" parent="1">
                    <mxGeometry x="1324" y="887" width="130" height="50" as="geometry"/>
                </mxCell>
                <mxCell id="75" value="done_wire" style="text;html=1;align=center;verticalAlign=middle;resizable=0;points=[];autosize=1;strokeColor=none;fillColor=none;fontSize=27;" vertex="1" parent="1">
                    <mxGeometry x="1109" y="483" width="150" height="50" as="geometry"/>
                </mxCell>
                <mxCell id="76" value="count_wire" style="text;html=1;align=center;verticalAlign=middle;resizable=0;points=[];autosize=1;strokeColor=none;fillColor=none;fontSize=27;strokeWidth=4;" vertex="1" parent="1">
                    <mxGeometry x="1034" y="273" width="150" height="50" as="geometry"/>
                </mxCell>
                <mxCell id="77" value="done_wire" style="text;html=1;align=center;verticalAlign=middle;resizable=0;points=[];autosize=1;strokeColor=none;fillColor=none;fontSize=27;" vertex="1" parent="1">
                    <mxGeometry x="879" y="483" width="150" height="50" as="geometry"/>
                </mxCell>
                <mxCell id="78" value="done_wire" style="text;html=1;align=center;verticalAlign=middle;resizable=0;points=[];autosize=1;strokeColor=none;fillColor=none;fontSize=27;" vertex="1" parent="1">
                    <mxGeometry x="1249" y="643" width="150" height="50" as="geometry"/>
                </mxCell>
                <mxCell id="79" value="n_in" style="text;html=1;align=center;verticalAlign=middle;resizable=0;points=[];autosize=1;strokeColor=none;fillColor=none;fontSize=27;" vertex="1" parent="1">
                    <mxGeometry x="506" y="333" width="70" height="50" as="geometry"/>
                </mxCell>
                <mxCell id="80" value="data_in" style="text;html=1;align=center;verticalAlign=middle;resizable=0;points=[];autosize=1;strokeColor=none;fillColor=none;fontSize=27;strokeWidth=4;" vertex="1" parent="1">
                    <mxGeometry x="491" y="593" width="110" height="50" as="geometry"/>
                </mxCell>
                <mxCell id="81" value="count - 1" style="text;html=1;align=center;verticalAlign=middle;resizable=0;points=[];autosize=1;strokeColor=none;fillColor=none;fontSize=24;" vertex="1" parent="1">
                    <mxGeometry x="650" y="130" width="120" height="40" as="geometry"/>
                </mxCell>
                <mxCell id="82" style="edgeStyle=none;html=1;fontSize=17;strokeWidth=4;" edge="1" source="83" parent="1">
                    <mxGeometry relative="1" as="geometry">
                        <mxPoint x="449" y="895" as="targetPoint"/>
                    </mxGeometry>
                </mxCell>
                <mxCell id="83" value="&lt;span style=&quot;font-size: 27px;&quot;&gt;CLK&lt;/span&gt;" style="text;html=1;align=center;verticalAlign=middle;resizable=0;points=[];autosize=1;strokeColor=none;fillColor=none;fontSize=17;strokeWidth=4;" vertex="1" parent="1">
                    <mxGeometry x="225" y="870" width="80" height="50" as="geometry"/>
                </mxCell>
                <mxCell id="84" value="&lt;font size=&quot;1&quot; style=&quot;&quot;&gt;&lt;u style=&quot;font-size: 59px;&quot;&gt;SERIAL SUM&lt;/u&gt;&lt;/font&gt;" style="text;html=1;align=center;verticalAlign=middle;resizable=0;points=[];autosize=1;strokeColor=none;fillColor=none;fontSize=27;" vertex="1" parent="1">
                    <mxGeometry x="1495" y="45" width="380" height="80" as="geometry"/>
                </mxCell>
            </root>
        </mxGraphModel>
    </diagram>
</mxfile>